<?xml version="1.0" encoding="UTF-8"?> <svg xmlns="http://www.w3.org/2000/svg" width="478" height="288" viewBox="0 0 478 288" fill="none"><path d="M234.612 203.715C236.095 204.869 237.538 206.023 239.022 207.136C215.035 225.723 189.607 242.456 163.23 257.292C137.389 271.841 108.499 289.357 77.5886 287.584C73.2611 287.255 68.8513 286.801 64.4827 285.895C61.4741 285.276 58.4243 284.411 55.4981 283.339C44.2057 279.3 34.2732 272.253 26.5251 263.062C7.8554 240.848 3.28071 211.051 1.13761 182.985C-1.50005 148.901 0.80791 114.323 4.39348 80.6104C6.08323 64.9081 8.02026 49.7003 14.6144 35.152C34.6854 -8.9876 87.4798 -3.79475 125.891 9.35234C166.404 23.2825 205.103 46.9802 239.022 74.7993C226.163 85.35 213.923 96.56 202.548 108.017C191.626 119.021 182.971 133.487 186.763 149.519C192.327 173.258 216.56 189.455 234.612 203.715Z" fill="#85CDCA"></path><path d="M476.864 182.943C474.68 210.969 470.147 240.766 451.477 263.021C443.729 272.253 433.838 279.3 422.504 283.298C419.578 284.37 416.528 285.235 413.437 285.853C409.192 286.801 404.782 287.255 400.331 287.543C369.503 289.315 340.572 271.841 314.772 257.251C288.272 242.373 262.967 225.641 238.98 207.094C240.464 206.023 241.907 204.869 243.39 203.674C261.359 189.414 285.675 173.258 291.239 149.478C295.031 133.446 286.376 118.98 275.454 107.976C264.079 96.5188 251.839 85.3087 238.98 74.7581C272.899 46.9802 311.599 23.2825 352.111 9.3111C390.522 -3.83599 443.317 -9.0289 463.388 35.1107C469.982 49.659 471.836 64.8256 473.526 80.5691C477.194 114.282 479.502 148.86 476.864 182.943Z" fill="#E8AB7C"></path><path d="M291.281 149.478C285.717 173.258 261.401 189.413 243.432 203.673C241.948 204.827 240.506 205.981 239.022 207.094C237.539 206.023 236.096 204.869 234.612 203.673C216.561 189.413 192.327 173.258 186.764 149.478C182.972 133.446 191.627 118.98 202.548 107.976C213.923 96.5184 226.164 85.3083 239.022 74.7577C251.881 85.3083 264.121 96.5184 275.496 107.976C286.376 118.98 295.072 133.487 291.281 149.478Z" fill="#762232"></path></svg> 